<?xml version="1.0" encoding="UTF-8" standalone="no"?>
<!DOCTYPE svg PUBLIC "-//W3C//DTD SVG 1.1//EN"
 "http://www.w3.org/Graphics/SVG/1.1/DTD/svg11.dtd">
<!-- Generated by graphviz version 14.1.2 (20260126.1125)
 -->
<!-- Pages: 1 -->
<svg width="1422pt" height="398pt"
 viewBox="0.00 0.00 1422.00 398.00" xmlns="http://www.w3.org/2000/svg" xmlns:xlink="http://www.w3.org/1999/xlink">
<g id="graph0" class="graph" transform="scale(1 1) rotate(0) translate(4 394.35)">
<polygon fill="white" stroke="none" points="-4,4 -4,-394.35 1418,-394.35 1418,4 -4,4"/>
<text xml:space="preserve" text-anchor="middle" x="707" y="-373.05" font-family="Times,serif" font-size="14.00">[Büchi]</text>
<g id="clust1" class="cluster">
<title>cluster_legend</title>
<path fill="none" stroke="#777777" stroke-dasharray="5,2" d="M20,-214.35C20,-214.35 247.75,-214.35 247.75,-214.35 253.75,-214.35 259.75,-220.35 259.75,-226.35 259.75,-226.35 259.75,-311.35 259.75,-311.35 259.75,-317.35 253.75,-323.35 247.75,-323.35 247.75,-323.35 20,-323.35 20,-323.35 14,-323.35 8,-317.35 8,-311.35 8,-311.35 8,-226.35 8,-226.35 8,-220.35 14,-214.35 20,-214.35"/>
<text xml:space="preserve" text-anchor="middle" x="133.88" y="-308.9" font-family="Times,serif" font-size="11.00">Legend</text>
</g>
<!-- I -->
<!-- 0 -->
<g id="node2" class="node">
<title>0</title>
<ellipse fill="none" stroke="black" cx="302.75" cy="-197.35" rx="18" ry="18"/>
<text xml:space="preserve" text-anchor="middle" x="302.75" y="-193.07" font-family="Times,serif" font-size="12.00">0</text>
</g>
<!-- I&#45;&gt;0 -->
<g id="edge1" class="edge">
<title>I&#45;&gt;0</title>
<path fill="none" stroke="black" d="M135,-197.35C138.69,-197.35 226.21,-197.35 272.94,-197.35"/>
<polygon fill="black" stroke="black" points="272.89,-200.85 282.89,-197.35 272.89,-193.85 272.89,-200.85"/>
</g>
<!-- 0&#45;&gt;0 -->
<g id="edge2" class="edge">
<title>0&#45;&gt;0</title>
<path fill="none" stroke="black" d="M297.05,-214.57C295.05,-227.41 296.96,-240.35 302.75,-240.35 306.78,-240.35 308.93,-234.09 309.19,-225.96"/>
<polygon fill="black" stroke="black" points="312.69,-225.83 308.55,-216.08 305.7,-226.28 312.69,-225.83"/>
<text xml:space="preserve" text-anchor="middle" x="302.75" y="-243.6" font-family="Times,serif" font-size="10.00">(!p0 &amp; p2) | (p1 &amp; p2)</text>
</g>
<!-- 1 -->
<g id="node3" class="node">
<title>1</title>
<ellipse fill="none" stroke="black" cx="1260.12" cy="-157.35" rx="18" ry="18"/>
<ellipse fill="none" stroke="black" cx="1260.12" cy="-157.35" rx="22" ry="22"/>
<text xml:space="preserve" text-anchor="middle" x="1260.12" y="-153.07" font-family="Times,serif" font-size="12.00">1</text>
</g>
<!-- 0&#45;&gt;1 -->
<g id="edge3" class="edge">
<title>0&#45;&gt;1</title>
<path fill="none" stroke="black" d="M320.98,-197.04C412.34,-195.31 849.53,-186.11 1206.25,-162.35 1212.91,-161.9 1220.03,-161.31 1226.82,-160.69"/>
<polygon fill="black" stroke="black" points="1226.67,-164.22 1236.29,-159.78 1226,-157.25 1226.67,-164.22"/>
<text xml:space="preserve" text-anchor="middle" x="809.38" y="-189.13" font-family="Times,serif" font-size="10.00">p3 &amp; p0 &amp; !p1 &amp; !p2</text>
</g>
<!-- 2 -->
<g id="node4" class="node">
<title>2</title>
<ellipse fill="none" stroke="black" cx="999" cy="-253.35" rx="18" ry="18"/>
<text xml:space="preserve" text-anchor="middle" x="999" y="-249.07" font-family="Times,serif" font-size="12.00">2</text>
</g>
<!-- 0&#45;&gt;2 -->
<g id="edge4" class="edge">
<title>0&#45;&gt;2</title>
<path fill="none" stroke="black" d="M317.87,-207.41C323.48,-210.88 330.16,-214.39 336.75,-216.35 572.48,-286.47 875.92,-265.24 969.35,-256.36"/>
<polygon fill="black" stroke="black" points="969.53,-259.86 979.14,-255.4 968.84,-252.9 969.53,-259.86"/>
<text xml:space="preserve" text-anchor="middle" x="614.12" y="-269.11" font-family="Times,serif" font-size="10.00">p0 &amp; !p1 &amp; p2</text>
</g>
<!-- 3 -->
<g id="node5" class="node">
<title>3</title>
<ellipse fill="none" stroke="black" cx="614.12" cy="-47.35" rx="18" ry="18"/>
<text xml:space="preserve" text-anchor="middle" x="614.12" y="-43.07" font-family="Times,serif" font-size="12.00">3</text>
</g>
<!-- 0&#45;&gt;3 -->
<g id="edge5" class="edge">
<title>0&#45;&gt;3</title>
<path fill="none" stroke="black" d="M306.05,-179.41C309.44,-160.51 317.6,-131.23 336.75,-114.6 408.85,-51.99 529.72,-45.59 584.54,-46.21"/>
<polygon fill="black" stroke="black" points="584.21,-49.71 594.29,-46.42 584.36,-42.71 584.21,-49.71"/>
<text xml:space="preserve" text-anchor="middle" x="422.62" y="-117.85" font-family="Times,serif" font-size="10.00">(p3 &amp; !p0 &amp; !p2) | (p3 &amp; p1 &amp; !p2)</text>
</g>
<!-- 4 -->
<g id="node6" class="node">
<title>4</title>
<ellipse fill="none" stroke="black" cx="999" cy="-47.35" rx="18" ry="18"/>
<text xml:space="preserve" text-anchor="middle" x="999" y="-43.07" font-family="Times,serif" font-size="12.00">4</text>
</g>
<!-- 0&#45;&gt;4 -->
<g id="edge6" class="edge">
<title>0&#45;&gt;4</title>
<path fill="none" stroke="black" d="M318.34,-187.53C323.9,-184.18 330.43,-180.69 336.75,-178.35 351.66,-172.83 883.48,-75.77 899,-72.35 923.2,-67.02 950.49,-60.05 970.28,-54.83"/>
<polygon fill="black" stroke="black" points="971.03,-58.25 979.8,-52.3 969.23,-51.49 971.03,-58.25"/>
<text xml:space="preserve" text-anchor="middle" x="614.12" y="-144.52" font-family="Times,serif" font-size="10.00">(!p3 &amp; !p0 &amp; !p2) | (!p3 &amp; p1 &amp; !p2)</text>
</g>
<!-- 5 -->
<g id="node7" class="node">
<title>5</title>
<ellipse fill="none" stroke="black" cx="1396" cy="-156.35" rx="18" ry="18"/>
<text xml:space="preserve" text-anchor="middle" x="1396" y="-152.07" font-family="Times,serif" font-size="12.00">5</text>
</g>
<!-- 0&#45;&gt;5 -->
<g id="edge7" class="edge">
<title>0&#45;&gt;5</title>
<path fill="none" stroke="black" d="M310.18,-214.12C315.6,-226.25 324.46,-242.23 336.75,-252.35 437.6,-335.37 482.5,-352.35 613.12,-352.35 613.12,-352.35 613.12,-352.35 1261.12,-352.35 1341.17,-352.35 1376.82,-239.5 1389.36,-185.06"/>
<polygon fill="black" stroke="black" points="1392.72,-186.08 1391.43,-175.57 1385.88,-184.59 1392.72,-186.08"/>
<text xml:space="preserve" text-anchor="middle" x="999" y="-355.6" font-family="Times,serif" font-size="10.00">!p3 &amp; p0 &amp; !p1 &amp; !p2</text>
</g>
<!-- 1&#45;&gt;1 -->
<g id="edge8" class="edge">
<title>1&#45;&gt;1</title>
<path fill="none" stroke="black" d="M1247.41,-175.68C1242.65,-189.87 1246.89,-204.35 1260.12,-204.35 1269.84,-204.35 1274.71,-196.54 1274.73,-186.77"/>
<polygon fill="black" stroke="black" points="1278.22,-186.44 1273.09,-177.17 1271.32,-187.62 1278.22,-186.44"/>
<text xml:space="preserve" text-anchor="middle" x="1260.12" y="-207.6" font-family="Times,serif" font-size="10.00">p3 | p2</text>
</g>
<!-- 1&#45;&gt;5 -->
<g id="edge9" class="edge">
<title>1&#45;&gt;5</title>
<path fill="none" stroke="black" d="M1279.6,-147.2C1289.49,-142.34 1302.06,-137.06 1314,-134.6 1334.89,-130.29 1341.57,-128.47 1362,-134.6 1365.44,-135.63 1368.85,-137.15 1372.1,-138.91"/>
<polygon fill="black" stroke="black" points="1370.19,-141.84 1380.51,-144.27 1373.95,-135.94 1370.19,-141.84"/>
<text xml:space="preserve" text-anchor="middle" x="1338" y="-137.85" font-family="Times,serif" font-size="10.00">!p3 &amp; !p2</text>
</g>
<!-- 2&#45;&gt;1 -->
<g id="edge10" class="edge">
<title>2&#45;&gt;1</title>
<path fill="none" stroke="black" d="M1017.06,-251.18C1060.33,-245.49 1173.27,-229.3 1206.25,-211.35 1218.82,-204.51 1230.27,-193.7 1239.28,-183.54"/>
<polygon fill="black" stroke="black" points="1241.82,-185.96 1245.57,-176.05 1236.46,-181.46 1241.82,-185.96"/>
<text xml:space="preserve" text-anchor="middle" x="1152.62" y="-241.09" font-family="Times,serif" font-size="10.00">p3 &amp; !p2</text>
</g>
<!-- 2&#45;&gt;2 -->
<g id="edge11" class="edge">
<title>2&#45;&gt;2</title>
<path fill="none" stroke="black" d="M982.6,-261.79C961.73,-276.69 967.19,-296.35 999,-296.35 1025.59,-296.35 1033.77,-282.61 1023.55,-269.4"/>
<polygon fill="black" stroke="black" points="1026.2,-267.09 1016.51,-262.82 1021.42,-272.21 1026.2,-267.09"/>
<text xml:space="preserve" text-anchor="middle" x="999" y="-299.6" font-family="Times,serif" font-size="10.00">p2</text>
</g>
<!-- 2&#45;&gt;5 -->
<g id="edge12" class="edge">
<title>2&#45;&gt;5</title>
<path fill="none" stroke="black" d="M1017.17,-253.57C1036.91,-253.82 1070.3,-254.2 1099,-254.35 1146.67,-254.59 1159.25,-262.31 1206.25,-254.35 1248.83,-247.13 1259.43,-241.77 1298,-222.35 1324.96,-208.77 1353.2,-188.8 1372.22,-174.39"/>
<polygon fill="black" stroke="black" points="1374.28,-177.22 1380.06,-168.34 1370.01,-171.67 1374.28,-177.22"/>
<text xml:space="preserve" text-anchor="middle" x="1260.12" y="-254.54" font-family="Times,serif" font-size="10.00">!p3 &amp; !p2</text>
</g>
<!-- 3&#45;&gt;1 -->
<g id="edge13" class="edge">
<title>3&#45;&gt;1</title>
<path fill="none" stroke="black" d="M632.1,-51.69C652.74,-56.91 688.69,-65.78 719.75,-72.35 910.25,-112.64 1142.28,-142.99 1226.56,-153.42"/>
<polygon fill="black" stroke="black" points="1226.05,-156.88 1236.4,-154.63 1226.9,-149.94 1226.05,-156.88"/>
<text xml:space="preserve" text-anchor="middle" x="999" y="-136.93" font-family="Times,serif" font-size="10.00">(p0 &amp; !p1 &amp; p2) | (p3 &amp; p0 &amp; !p1)</text>
</g>
<!-- 3&#45;&gt;3 -->
<g id="edge14" class="edge">
<title>3&#45;&gt;3</title>
<path fill="none" stroke="black" d="M597.17,-53.92C567.14,-68.98 572.8,-90.35 614.12,-90.35 650.29,-90.35 659.14,-73.99 640.66,-59.81"/>
<polygon fill="black" stroke="black" points="642.72,-56.96 632.37,-54.71 639.05,-62.93 642.72,-56.96"/>
<text xml:space="preserve" text-anchor="middle" x="614.12" y="-93.6" font-family="Times,serif" font-size="10.00">(!p0 &amp; p2) | (p3 &amp; !p0) | (p1 &amp; p2) | (p3 &amp; p1)</text>
</g>
<!-- 3&#45;&gt;4 -->
<g id="edge15" class="edge">
<title>3&#45;&gt;4</title>
<path fill="none" stroke="black" d="M632.52,-48.43C653.27,-49.67 689.03,-51.61 719.75,-52.35 799.39,-54.25 819.36,-54.36 899,-52.35 922.79,-51.75 949.77,-50.34 969.55,-49.17"/>
<polygon fill="black" stroke="black" points="969.56,-52.67 979.33,-48.57 969.14,-45.68 969.56,-52.67"/>
<text xml:space="preserve" text-anchor="middle" x="809.38" y="-57.06" font-family="Times,serif" font-size="10.00">(!p3 &amp; !p0 &amp; !p2) | (!p3 &amp; p1 &amp; !p2)</text>
</g>
<!-- 3&#45;&gt;5 -->
<g id="edge16" class="edge">
<title>3&#45;&gt;5</title>
<path fill="none" stroke="black" d="M632.03,-43.16C652.62,-38.24 688.5,-30.26 719.75,-26.35 934.31,0.53 996.05,18.17 1206.25,-32.6 1278.79,-50.12 1307.73,-44.12 1362,-95.35 1371.75,-104.55 1379.27,-117.3 1384.64,-128.76"/>
<polygon fill="black" stroke="black" points="1381.37,-130.01 1388.55,-137.81 1387.8,-127.24 1381.37,-130.01"/>
<text xml:space="preserve" text-anchor="middle" x="1152.62" y="-35.85" font-family="Times,serif" font-size="10.00">!p3 &amp; p0 &amp; !p1 &amp; !p2</text>
</g>
<!-- 4&#45;&gt;1 -->
<g id="edge17" class="edge">
<title>4&#45;&gt;1</title>
<path fill="none" stroke="black" d="M1016.55,-52.37C1062.43,-66.33 1188.96,-105.21 1206.25,-114.6 1216.31,-120.06 1226.33,-127.51 1234.9,-134.67"/>
<polygon fill="black" stroke="black" points="1232.58,-137.29 1242.42,-141.22 1237.18,-132.01 1232.58,-137.29"/>
<text xml:space="preserve" text-anchor="middle" x="1152.62" y="-117.85" font-family="Times,serif" font-size="10.00">p3 &amp; p0 &amp; !p1</text>
</g>
<!-- 4&#45;&gt;3 -->
<g id="edge18" class="edge">
<title>4&#45;&gt;3</title>
<path fill="none" stroke="black" d="M980.89,-44.69C961.19,-41.78 927.85,-37.3 899,-35.6 819.47,-30.89 799.29,-31.14 719.75,-35.6 693.82,-37.05 664.43,-40.51 643.42,-43.3"/>
<polygon fill="black" stroke="black" points="643.04,-39.82 633.61,-44.64 643.99,-46.76 643.04,-39.82"/>
<text xml:space="preserve" text-anchor="middle" x="809.38" y="-38.85" font-family="Times,serif" font-size="10.00">(p3 &amp; !p0) | (p3 &amp; p1)</text>
</g>
<!-- 4&#45;&gt;4 -->
<g id="edge19" class="edge">
<title>4&#45;&gt;4</title>
<path fill="none" stroke="black" d="M982.6,-55.79C961.73,-70.69 967.19,-90.35 999,-90.35 1025.59,-90.35 1033.77,-76.61 1023.55,-63.4"/>
<polygon fill="black" stroke="black" points="1026.2,-61.09 1016.51,-56.82 1021.42,-66.21 1026.2,-61.09"/>
<text xml:space="preserve" text-anchor="middle" x="999" y="-93.6" font-family="Times,serif" font-size="10.00">(!p3 &amp; !p0) | (!p3 &amp; p1)</text>
</g>
<!-- 4&#45;&gt;5 -->
<g id="edge20" class="edge">
<title>4&#45;&gt;5</title>
<path fill="none" stroke="black" d="M1017.28,-47.18C1071.97,-47.39 1244.64,-53.94 1362,-124.35 1366.79,-127.22 1371.44,-130.92 1375.65,-134.78"/>
<polygon fill="black" stroke="black" points="1372.98,-137.06 1382.54,-141.63 1377.92,-132.1 1372.98,-137.06"/>
<text xml:space="preserve" text-anchor="middle" x="1260.12" y="-96.4" font-family="Times,serif" font-size="10.00">!p3 &amp; p0 &amp; !p1</text>
</g>
<!-- 5&#45;&gt;1 -->
<g id="edge21" class="edge">
<title>5&#45;&gt;1</title>
<path fill="none" stroke="black" d="M1377.72,-156.48C1356.54,-156.63 1320.21,-156.91 1293.73,-157.1"/>
<polygon fill="black" stroke="black" points="1293.82,-153.6 1283.85,-157.18 1293.88,-160.6 1293.82,-153.6"/>
<text xml:space="preserve" text-anchor="middle" x="1338" y="-160.19" font-family="Times,serif" font-size="10.00">p3</text>
</g>
<!-- 5&#45;&gt;5 -->
<g id="edge22" class="edge">
<title>5&#45;&gt;5</title>
<path fill="none" stroke="black" d="M1386.78,-172.22C1382.85,-185.49 1385.92,-199.35 1396,-199.35 1403.17,-199.35 1406.79,-192.34 1406.87,-183.53"/>
<polygon fill="black" stroke="black" points="1410.35,-183.11 1405.44,-173.72 1403.42,-184.12 1410.35,-183.11"/>
<text xml:space="preserve" text-anchor="middle" x="1396" y="-202.6" font-family="Times,serif" font-size="10.00">!p3</text>
</g>
<!-- legend_node -->
<g id="node8" class="node">
<title>legend_node</title>
<polygon fill="none" stroke="black" points="245.75,-294.22 16,-294.22 16,-222.47 251.75,-222.47 251.75,-288.22 245.75,-294.22"/>
<polyline fill="none" stroke="black" points="245.75,-294.22 245.75,-288.22"/>
<polyline fill="none" stroke="black" points="251.75,-288.22 245.75,-288.22"/>
<text xml:space="preserve" text-anchor="start" x="24" y="-280.72" font-family="Times,serif" font-size="10.00">AP Legend:</text>
<text xml:space="preserve" text-anchor="start" x="24" y="-267.97" font-family="Times,serif" font-size="10.00">p0 = holding(green_block_1)</text>
<text xml:space="preserve" text-anchor="start" x="24" y="-255.22" font-family="Times,serif" font-size="10.00">p1 = onTable(purple_block_1)</text>
<text xml:space="preserve" text-anchor="start" x="24" y="-242.47" font-family="Times,serif" font-size="10.00">p2 = onTop(purple_block_1, black_block_2)</text>
<text xml:space="preserve" text-anchor="start" x="24" y="-229.72" font-family="Times,serif" font-size="10.00">p3 = holding(black_block_1)</text>
</g>
</g>
</svg>
